<?xml version="1.0" encoding="utf-8"?>
<!-- Generator: Adobe Illustrator 28.4.1, SVG Export Plug-In . SVG Version: 6.00 Build 0)  -->
<svg version="1.1" id="Capa_1" xmlns="http://www.w3.org/2000/svg" xmlns:xlink="http://www.w3.org/1999/xlink" x="0px" y="0px"
	 viewBox="0 0 392.7 745.5" style="enable-background:new 0 0 392.7 745.5;" xml:space="preserve">
<style type="text/css">
	.st0{fill:#3BC024;}
	.st1{fill:#191C18;}
	.st2{fill:#242322;}
	.st3{fill:#32A91E;}
	.st4{fill:#278A16;}
	.st5{fill:#E86406;}
	.st6{fill:#0A3206;}
	.st7{fill:#43433F;}
	.st8{fill:#4E4E4E;}
	.st9{fill:#217612;}
	.st10{fill:#15560A;}
	.st11{fill:#2D981A;}
</style>
<g>
	<path class="st0" d="M253,0.4l0.2-0.1l0-0.2c2.4,2.6,5.6,1,8.4,1.3c0.7,1,1,1.5,1.7,2.5c-1.1,4.4-5.3,6.6-7.8,10
		c-3.7,0.6-3.7,4.2-5.3,6.5c-4.8-0.2-9.6,0.9-14.3,0.9c-16.8,0.3-33.6,0.3-50.4,0c-4.4-0.1-9.1-0.3-12.9-3.5c3-0.9,6.2-1,9.1-2.6
		c2.8-0.1,5.4-0.8,7.9-2c2.8-0.1,5.5-0.8,8-2c2.8-0.1,5.4-0.8,8-1.9c5.4-0.5,10.8-1.4,16-3.2c2.8-0.2,5.5-0.6,8-1.7
		c2.8,0.1,5.4-0.5,8-1.4C242.7,2.1,247.9,1.3,253,0.4L253,0.4z"/>
	<path class="st1" d="M255.1,13.7c2.9,0.7,5.9,1.2,8.6,2.3c6.3,2.6,8.1,9.3,4.7,15.8c-3,5.8-8.7,7-14.7,3.2c-1.1-0.7-2.2-1.3-3.4-2
		c-1.8-4.2-0.9-8.5-0.5-12.8C251.4,17.9,251.4,14.3,255.1,13.7L255.1,13.7z"/>
	<g>
		<path class="st2" d="M208.9,728.1c-0.1-2.8-2.7-3.2-4.3-4.3c-17.1-11.8-30.1-27.2-40.1-45.3c-0.4-0.7-0.5-1.6-0.8-2.4
			c0.2-1.9-0.7-3.4-1.9-4.8c-2.4-5.3-4.8-10.7-7.1-16c-0.5-2.9-1.7-5.4-3-8c-0.3-2.2-0.8-4.3-1.9-6.2c-0.1-0.6-0.2-1.2-0.3-1.8
			c0.3-2.8-0.8-5.4-1.2-8.1c0.7-2-1.1-3.9,0-5.9c2.1-0.3,1.8-2.2,2.3-3.5c5.4-13.3,7.1-27.3,7.2-41.4c0.1-13.8,0.6-27.6,3.4-41.1
			c7.8-38.5,29.1-68.6,58.6-93.6c4.7-4,9-8.5,9.1-15.4c3.2-1.5,5.7-3.7,7.5-6.7c2.8,0.3,5.6,0.9,8.5,0.3c2.9,0.8,5.5-0.4,8.1-1.6
			c2.8-0.1,5.2-1.4,7.5-2.9c2.5,0.1,5,0.2,7.4-0.6c1.8,2.2,4.2,1,6.3,1.2c1.1,0.8,2.2,1.5,3.7,1.2c1.7,10.1,1.9,20.1-0.8,30.1
			c-5.4-1.6-6.3-1.1-6.5,4.1c-0.1,2.5-0.1,5-0.2,7.4c-0.2,0.8-0.4,2.2-0.6,3c-0.4,0.8-0.3,1.7,0.1,2.6c-0.4,0.9-0.6,1.8-0.1,2.8
			c-0.6,2.7-1.1,5.5-0.5,8.3c-0.1,0.6-0.2,1.2-0.3,1.9c-0.6,0.9-0.6,1.9-0.2,3c0,1-0.1,1.9-0.2,2.9c-0.8,2.5-1.1,5-0.6,7.6
			c0,0.9,0,2.4,0.1,3.4c-1.9,9.8-2.2,19.5,0.8,29.1c0,2.8,1,5.4,2.1,8c-0.2,0.8,0.3,1.2,0.9,1.5c1.6,9,1.1,18.1,2.2,27.1
			c0.6,4.7-0.8,8.7-4.3,12.1c-3.3,3.1-2.4,6.3,1.9,8c2.8,1.1,5.7,1.8,8.5,2.8c1.7,0.6,2.1,1.2,1.4,3.3c-1.8,5.1-3.3,10.3-5.7,15.2
			c-2.5,5.3-1.2,10.3,1.1,15.2c-0.4,9-0.8,18-1.2,27c-1.1-1.1-0.9-3.3-3.6-3.8c-0.2,4.2-1.7,8.3,1.9,12c0,7.9,0.2,15.8,0,23.7
			c-0.1,3.2-1.3,6.1-4.2,7.9c-0.3-0.2-0.4-0.2-0.7-0.4l0-4.3c0.4-2.3,0.7-4.7-0.2-7c0.3-1.4,0.4-2.7-0.1-4.1
			c0.3-2.6,0.3-5.3-0.3-7.9c0.4-2.7,0.4-5.4-0.3-8.1c0-1.3,0-2.6,0-3.9c0.6-4.1,0-8.1-0.5-12.1c0.3-2.6,0.4-5.3-0.3-7.9
			c0.2-5.4,0.4-10.7-0.4-16.1c0.3-1.1,0.8-2.6-0.9-2.7c-1.6-0.1-1.1,1.6-1.3,2.6c-1.5,5.3-2.1,10.7-2.5,16.1
			c-1.1,2.5-1.2,5.2-1.4,7.9c-1.8,5.2-2,10.7-2.6,16.1c-0.8,2.6-1.4,5.2-1.2,7.9c-1.2,2.5-1.2,5.2-1.4,7.9c-0.9,2.6-1.4,5.3-1.4,8.1
			c-0.7,2.7-1.6,5.3-1.2,8.1c-0.2,1-0.4,1.9-0.7,2.8c-1.5,4.5-0.1,6.8,4.9,6.6c2.2-0.1,4.1,1.1,6,2c3.8,1.9,5.6,0.8,5.4-3.5
			c1-1.4,0-2.9,0.3-4.3c1.4,0.6,2.8,1.1,4,1.8c3.9,2.3,6.3,1.2,8-2.8c1.1-2.5,2.8-4.8,4.2-7.2c1.5,0.7,2.9,1.5,4.6,0.9
			c3.2,5,4.9,1.2,6-1.3c1.5-3.5,3.2-3.3,5.5-1.1c5.2,4.8,11.6,6.9,18.4,8.2c7.3,1.5,14.9,1.8,21.5,5.8c-0.1,0.5-0.1,0.5-0.3,1
			c-4.2,0.3-5.8,3.5-7.5,6.6c-0.4,0.1-1,0-1.1,0.2c-0.4,0.6,0.1,1,0.6,1.3c-0.3,0.7-0.5,1.7-1,2.2c-4.1,4.2-8.2,8.3-12.6,12.3
			c-1.5,1.3-2.8,2.3-2.3,4.5c-0.1,0.2-0.2,0.4-0.3,0.6c-1.9,0.7-3.9,1.1-5.5,2.6c-0.8,0-1.6,0.1-2.4,0.2c-4.7,0.7-8.5,3.1-11.8,6.4
			c-1.3,3.4-6.7,2.5-7.1,6.8c-1.7-0.2-3.3-0.4-5-0.7h-8.1c-2.8-0.3-5.5-0.5-8.2-0.8c-2.6-0.5-5.1-0.7-7.7-0.3
			c-2.6,0-5.3,0.1-7.9,0.2c-2.7,0.3-5.4,0.6-8.1,1c-2.6,0.4-5.3,0.7-7.9,1.1c-2.4,0.2-4.7,0.4-7.1,0.6c0.5-3.9-0.6-6.4-5.2-5.9
			c-3.5-2.9-6.9-6-11.8-6C211.8,728.1,210.3,728.4,208.9,728.1L208.9,728.1z M245.1,485.5c-2,0-4.6-1.7-5.2,1.9c0.8,3,1.6,6,2.4,9
			c-0.3,1.4,0.6,2,1.8,2.3c0.1,5.2,0.9,10.2,3.9,14.7c0.4,9.7,3.3,18.7,7.9,27.2c1.9,3.5,4.4,6.2,8.7,6.3c0,0.3,0.2,0.5,0.5,0.6
			c-0.3,3.3-1.6,7,3.2,10c-0.4-6.5,0.7-12-2.6-17c-0.2-0.1-0.4-0.2-0.6-0.3c-1.5-1.5-2.3-3.3-2.2-5.4c0.3-5.6,0.1-11.3,0.7-16.9
			c0.5-5,2.5-10.5-0.5-15.1c-3.1-4.8-3.8-10.1-4.9-15.5c-1.3-6.7-2.8-13.3-4.2-20c0.5-2.5-0.7-4.9-0.8-7.3c-0.1-2.5-0.5-4.9-3.3-5.3
			c-2.8-0.4-5.2,0.8-6,3.8c-2.9,0-5.7,0.7-8.1,2.2c-1.5,1-4.5,1.3-3.7,3.9c0.6,2.1,3,2.2,5.1,1.9c2,0.7,3.8-0.4,5.7-0.7
			c2,1.2,3.9,2.5,6.4,2.6c-1.6,2.6-1.8,5.2,0.3,7.8c2.2,2.7,2.1,5.6,0.5,8.5c-0.4,0.2-0.8,0.4-1.2,0.7H245.1z M197.7,596.9
			c2.8-0.7,5.6-1.2,9.2-3.5c-4.2-0.1-7-0.2-9.8,0.9c-2.3,0-4.7,0-7,0.1c-4.3,1.3-8.8,1.1-13.2,1.6c-3.4,0.4-3.9,2.8-3.7,5.1
			c0.3,2.9,3.1,2.9,5,2.2c3.6-1.4,7.7-1.5,10.9-3.8C192.2,599.3,195,598.2,197.7,596.9L197.7,596.9z M190,639.1
			c-0.3,0.2-0.7,0.4-1,0.6c-2.3,2.2-7.7,2-5.8,7.5c1.7,3.3,3.4,3.4,5.2,0c0.3-0.3,0.6-0.5,0.8-0.8c3.5-1.5,6-4.1,8.3-7
			c5.3-4.6,10.6-9.3,15.9-13.9c3.2-2.2,6.4-4.5,9.3-9.1c-4.5,1.7-7,4-9.5,6.4c-5.3,3.7-10.7,7.4-16,11.2
			C194.6,635.5,192.1,637,190,639.1L190,639.1z M197,647.5c-2.6,2.7-6.4,4.4-7.9,8.1c-1.1,3.2,0.6,5.6,2.2,8c1.4,4.3,3.8,8,6.3,11.7
			c2,2.9,4.2,2.9,6.3,0.1c2.8-3.7,5.3-7.5,7.3-11.7c1.2-0.9,1.9-2.1,2.2-3.5c3.1-3.9,6-7.9,8.2-12.4c0.2-0.3,0.5-0.7,0.8-1l3.9-5.9
			c4-5.3,7.5-10.9,10.5-16.8c5.7-8.5,11.4-17,16.2-26c-0.7-0.5-0.5-0.4-1.2-0.9c-7.6,7.1-15.1,14.2-22.7,21.4
			c-2.4,1-3.8,3.1-5.4,4.9c-3.3,2.3-6,5.2-8.8,8.2c-1,0.2-1.5,0.9-1.9,1.7c-2.8,1.6-5,3.8-6.9,6.4c-0.3,0.3-0.6,0.5-0.9,0.8
			C202,642.3,199.6,645,197,647.5L197,647.5z M229.2,571.4c-2.7-0.6-5.4-1.2-8.1-1.9c-2.6-0.6-5.2-1.2-7.9-1.8
			c-5.3-1.6-10.6-3-16.1-3.5c-2.6-1.2-5.2-1.8-8-1.9c-2.5-1.2-5.2-1.7-8-1.8c-4.3-0.3-6.5,1.9-6.6,6.8c-0.7,2.7-1.3,5.3-0.9,8.1
			c-0.5,2.6-0.4,5.2,0,7.8c-1,8.3-0.1,9.2,7.6,7.6l7.8-1c2.7-0.3,5.4-0.7,8.2-1c2.7-0.2,5.5-0.1,8.1-1c10.9-0.8,21.6-2.3,32.4-3.9
			c4.4,0.5,8.3-1.6,12.3-2.8c2.1-0.7,2.5-2.5,0.2-3.3c-4.4-1.6-8.5-4.4-13.5-4.3C234.4,572.3,231.8,571.7,229.2,571.4L229.2,571.4z
			 M241.1,671.2c1.5-2.4,1.9-5.1,2.2-7.9c1.4-2.5,1.8-5.2,2.2-8c1.6-1.5,1.2-3.2,0.7-5c0.9-0.5,1.9-0.8,1.6-2.2c0.8-3,2.1-5.8,2.2-9
			c1.4-2.5,2.3-5.1,2-8c1.6-7.4,5.4-14.1,6.2-21.7c0.1-1.2,2.8-2.5,0.3-3.4c-1.5-0.5-2.4,1.3-3.1,2.7c-3.6,7.4-7.1,14.8-10.6,22.3
			c-0.2,0.1-0.2,0.3-0.2,0.5c-1.9,2.1-3,4.8-3.9,7.5c-1.8,2.5-3.1,5.2-4,8.1c-3.4,4.9-5.6,10.5-7.9,16c-0.2,0.1-0.2,0.3-0.2,0.5
			c-1.9,2.1-3,4.8-3.9,7.5c-1.8,2.4-3.1,5.1-4,8l0.1-0.1c-2.2,1.5-2.7,4-3.8,6.2c-0.3,0.8-0.4,1.7-0.9,2.3c-3.2,3.2-1.6,5.6,1.3,7.7
			c2.1,1.5,4.4,3,6.5,4.5c5.1,3.7,7.5,2.8,8.8-3.3c0.3-1.3,0.1-2.7,0.2-4c3.4-0.1,3-2.8,3.3-4.9c1.1-2.2,1.8-4.6,1.8-7.1
			C240.1,677.6,240.7,674.4,241.1,671.2L241.1,671.2z M175.1,615.3c-0.1,2.8,0.7,5.5,1.8,8c0.2,4.4,1.9,8.4,2.8,12.6
			c0.6,2.8,2.2,3,4.3,1.4c6.4-4.7,12.9-9.3,19.4-14c0.6-0.3,1.2-0.7,1.8-1.1c3.7-1.9,7-4.3,10.1-7c4.6-3.3,9.3-6.6,13.9-9.8
			c3.2-1.4,5.9-3.4,8.3-5.9l-0.1,0.1c2.9-1.2,5.5-3.1,7.8-5.3c2.4-1.5,4.7-2.9,7-4.4c0.9-0.6,1.9-1.5,1.3-2.8
			c-0.6-1.3-1.8-1.2-3-0.9c-2.5,0.8-4.9,1.7-7.4,2.5c-4.8,1.2-9.6,2.3-14.1,4.4c-2.8,0.3-5.4,1.1-7.9,2.3c-5.4,1.5-10.9,2.6-16.1,5
			c-2.8,0.5-5.6,1-8.2,2.4c-5.3,1.5-10.8,2.4-15.8,4.8C175.9,608.9,173.9,611.5,175.1,615.3L175.1,615.3z M229.1,563.5
			c2.6,1.5,5.1,3,8.1,3.6c0.6,0.2,1.3,0.4,1.9,0.6c2.9,3.2,6.7,3,10.5,3c1.6,0,3.1-0.2,3.5-2.1c0.4-1.6-0.2-3.1-1.5-4
			c-1.8-1.2-3.6-2.5-5.9-1.4c-0.6-1.5-1-3.1-2.4-4.2c-1.5-2.8-3.3-5.4-6-7.2c-0.3-0.3-0.6-0.6-0.9-0.9c-2-2.5-4.4-4.5-7.1-6
			c-0.5-1.1-1.5-1.8-2.6-2.2c-1.5-2-3.3-3.6-5.5-4.7c-1.4-1.6-2.9-3.3-5.1-3.9c-7.3-7.8-16.1-13.8-23.9-21c-1.3-1.2-2.5-1-3.1,0.7
			c-1.4,4.6-4.5,8.4-5.1,13.3c-1.6,2.4-2.6,5.1-3.2,7.9c-0.1,0.4-0.3,0.9-0.5,1.3c-0.8,2.1-3.8,4.4,0.6,6c5.3,2.5,10.4,5.3,16.1,7
			c5,3,10.4,5.2,16,7c2.2,1.7,4.8,2.7,7.5,3.4C223.2,561.6,226.1,562.8,229.1,563.5L229.1,563.5z M213.2,481.5
			c-3.1,0.3-5.6,1.5-7.1,4.3c-0.3,0.4-0.8,1.1-1,1.5c-3.4,4.2-4.4,8.6-0.9,13.2c0.1,1.3,0.8,2.3,1.9,3c2.2,2.8,4.3,5.7,6.5,8.5
			c6.5,8.1,13.1,16.3,19.6,24.4c1.3,2.2,2.6,4.4,4.9,5.7c-0.1,1.4,0.9,2.1,1.8,2.9c2.1,2.7,3.2,6.6,7.5,7.1c0.9,2.7,2,5.2,4.4,7
			c1.3,0.9,2.6,1.8,4,0.7c1.3-1,0.6-2.4,0.2-3.7c-1.8-6.2-3.5-12.4-5.4-18.5c-0.5-1.5-0.5-3.7-3-3.8c-0.7-2.2-1.3-4.4-2-6.6
			c-1.8-5.5-3.6-11-6.6-16c-0.8-2.8-2-5.4-3.7-7.8c-2.1-5.6-4.6-11-7.9-16c-1.3-2.2-2.3-4.8-5.2-5.5
			C218.6,480.2,215.9,480.2,213.2,481.5L213.2,481.5z M205.3,510.5c-1.1-3.5-3.8-5.7-6.2-8.1c-1.9-1.9-2.9-1.3-4.1,0.9
			c-2.5,4.6-2.2,5.4,4.2,9.7c6.7,6.6,13.9,12.6,21.7,18C216,523.9,212.2,516,205.3,510.5L205.3,510.5z M181.1,547.5
			c-1.7-0.1-3.8-1.2-4.8,1.1c-0.9,2.2,0.7,3.8,1.9,5.3c1.2,1.5,3.2,1.7,4.9,2.1c4.6,1,9.2,2.1,13.9,2.8c2.7,0.4,5.3,2.5,8.9,0.7
			c-6.1-3.9-13.2-4.2-18.2-8.6C185.7,549.4,183.7,548,181.1,547.5L181.1,547.5z M235.9,452c-6.7,0.7-11.4,4.9-16.3,8.9
			c-22.7,18.7-38.3,42.2-47.2,70.1c-7.8,24.3-11.2,49.1-8.5,74.7c1.3,12.6,3.3,25,7.3,37c0.9,2.7,1.7,5.5,4.4,7.3
			c0.2-0.6,0.5-0.9,0.5-1.2c-0.1-0.8-0.3-1.6-0.6-2.4c-3.8-14.9-7.9-29.8-8.2-45.4c-0.3-12.8,0-25.5,1.8-38.3
			c3.1-22.3,10.5-43.3,20.6-63.1c4.6-9.1,11.6-17.3,18.8-24.9c8.3-8.8,18.1-15.5,28-22.2c0.1-0.2,0.2-0.5,0.3-0.8
			C236.5,451.8,236.2,451.9,235.9,452L235.9,452z M177.4,652.4c0.3,18.4,34.6,57,50.4,58C204.1,697.1,188.1,677,177.4,652.4z
			 M208.3,684.5c0.8-0.9,1.6-1.7,2.1-2.6c2.7-4.3,5.5-8.5,8.1-12.9c6.3-10.4,11.2-21.7,18.3-31.6c0.7-1,1.3-2.2,0-3
			c-1.2-0.7-2.2-0.2-3.1,1.3c-3.6,6.6-7.4,13.1-11.2,19.6c-4.9,8.3-9.9,16.5-14.8,24.8c-0.6,1-1.9,2-0.8,3.4
			C207.2,683.9,207.7,684.1,208.3,684.5L208.3,684.5z M261.4,453.1c-3.2,7.8-3.5,14.5-2.2,21.4c0.1,0.5,0.6,1.3,1.1,1.4
			c1,0.4,1.5-0.6,1.7-1.3C263.4,467.9,264.8,461.2,261.4,453.1z M233.4,486.5c-0.4-1.4-0.7-3.1-2.5-3.2c-1.3-0.1-1.4,1.2-1.3,2.2
			c0.2,1.3,0.3,2.8,2,3C232.9,488.6,233.4,487.8,233.4,486.5L233.4,486.5z"/>
		<path class="st3" d="M165.2,19.3c2.6,0.4,4.3-2.5,6.9-1.7c3.8,3.1,8.5,3.4,12.9,3.5c16.8,0.3,33.6,0.3,50.4,0
			c4.8-0.1,9.5-1.1,14.4-0.9c-0.4,4.3-1.2,8.6,0.5,12.8c0.3,10.2,6,15.7,13,17.1c3.9,0.8,7.8,1.6,11.7,2.1
			c12.4,1.7,22.4,7.1,27.9,18.8c6.1,13,9.4,26.9,10.1,41.2c1,21,9.9,37.9,24.9,51.9c3.5,3.3,6.6,8.1,12.6,7.7l-0.1,0.1
			c-0.2,1.4,0.3,2.1,1.7,2.2c1.5,1.2,3.1,2.4,5.2,1.6l3.9-0.1c0.5,0.4,0.9,0.2,1.3-0.2c0.9-0.2,1.8-0.4,2.6-0.6
			c3.1,0.1,5.2-2.5,8.1-3c1.3,0.8,2.1,1.8,2,3.4c-1,0.3-1.7,0.8-2.2,1.8c-3.1,1.4-5.5,3.9-7.9,6.3c-4.9,2.1-8,6.9-12.8,9.1
			c-2.4-1.9-4.8-3.9-8.2-3.1c0.1-2,1.4-3.7-0.3-6c-12.2-16.9-24.1-34-36.4-50.9c-1.7-2.4-2.4-4.5-2.4-7.3c0-6.6,1.5-13,0.2-19.7
			c-2.2-11.4-6.6-21.4-14.5-30c-2.1-2.3-3.1-2.3-4.2,0.9c-4.3,12-8.9,23.9-12.4,36.2c-0.5,1.8-1.2,3.3,0.6,4.9
			c13.3,12.3,24.2,26.8,36.3,40.2c7.5,8.2,14.2,17.1,20.7,26.1c1.8,2.4,1.8,4.8-0.6,7.1c-4,3.8-7.7,7.8-12.1,11.1
			c-0.6,0.5-1.3,1.4-2.1,0.9c-1.1-0.6-0.6-1.7-0.2-2.6c1.6-3.4,3.6-6.8,3.4-10.8c0.7-8-1.7-15-6.5-21.3c-9.1-11.8-19-22.9-29.5-33.5
			c-4-4-8.4-5.6-13.5-6.2c-3.1-0.4-6.2-0.6-9.3-1.2c-6.4-1.1-6.5-1.5-4.6-7.7c0.9-2.8,1.9-5.7,2.7-8.5c1.9-6.4,6.4-11.5,8.9-17.7
			c7-7.2,7.4-13.9,1.1-20.1c-0.5-0.5-0.8-1.1-1.4-1.4c-19.4-11.7-39-22.9-60.2-31.1c-15.6-6-30.7-13.7-48.1-13.7
			c0.3-1.2,0.6-2.4,0.9-3.5C162.1,22.1,163.7,20.7,165.2,19.3L165.2,19.3z"/>
		<path class="st4" d="M350,171.9c-6,0.4-9.1-4.4-12.6-7.7c-14.9-14-23.9-30.9-24.9-51.9c-0.6-14.3-4-28.2-10.1-41.2
			c-5.5-11.8-15.5-17.1-27.9-18.8c-3.9-0.5-7.8-1.3-11.7-2.1c-7-1.4-12.7-6.9-13-17.1c1.1,0.7,2.3,1.3,3.4,2
			c6,3.8,11.6,2.6,14.7-3.2c3.5-6.5,1.6-13.2-4.7-15.8c-2.7-1.1-5.7-1.5-8.6-2.3c2.9-3.8,7.8-6.1,8-11.7c0.5-0.2,0.5-0.2,1-0.3
			c1.4,1.6,2.9,2.9,4.9,3.7c0.9,0.7,1.7,1.5,2.5,2.2c1.3,2.2,3.1,3.8,5.1,5.2c0.5,0.8,1,1.6,1.5,2.4c3.5,5.8,7,11.6,10.5,17.4
			c0.9,2.3,2.3,4.3,4.3,5.9c-0.2,0.5,0.1,0.8,0.6,0.9c1.9,3.6,4.6,6.5,7.2,9.5c0.8,2.1,1.6,4.2,2.4,6.4c1.8,5.4,2.7,11.1,5.8,16
			c0.8,2.8,0.9,5.8,2.8,8.2c1.2,5.5,3.6,10.6,5.5,15.8c0.9,2.9,1.8,5.7,3.5,8.2c2,5.4,3.3,11.1,6.6,15.9c1.2,3.8,2.4,7.6,5,10.8
			c0,2.1,0.7,3.9,2.1,5.4c1.4,5.6,4.5,10.6,6.9,15.8c0.8,2.9,2.2,5.4,3.8,7.9c0.8,2.7,1.7,5.4,3.6,7.6c-0.1,0.2,0,0.4,0.2,0.5
			C349,168.9,349.5,170.4,350,171.9L350,171.9z"/>
		<path class="st0" d="M341.8,695.5c-6.7-4.2-14.5-4.5-21.9-6c-6.8-1.3-13.1-3.5-18.4-8.2c-2.3-2.1-4-2.3-5.5,1.1
			c-1.1,2.5-2.8,6.4-6,1.3c0.8-1.4,1.1-2.9,0.6-4.5c0.1-1,0.2-2,0.3-3c0.9-1.6,0.9-3.2,0.4-4.9c0.7-2.6,0.8-5.3,0.7-8
			c0.7-0.6,0.8-1.2,0.2-2c0.1-2,0.1-4.1,0.2-6.1c0.1-0.6,0.1-1.2,0.2-1.9c3.8-5.4,5-11.4,4.5-17.8c2.2-3.8,2.2-8.1,2.9-12.2
			c0.5-2.6,1.1-5.3,1.6-7.9c2.1-5.6,3.1-11.4,3.6-17.3c2-2.9,2.3-6.2,2.7-9.5c0.7-1.7,1.6-3.3,1.4-5.2c1.1-2.5,1.8-5,1.9-7.7
			c2.9-2.5,3.1-5.7,2.7-9.1c0.9-2.4,1.8-4.7,1.5-7.3c1.1-1.8,0.4-3.9,0.9-5.8c1.1-0.1,2.2-0.1,2.7-1.6c1.6-5.4,3.6-10.7,5-16.2
			c8.4-33.1,13.6-66.9,19-100.6c2.3-13.9,4-27.9,9.6-41.1c4.3-10.1,5.7-21,4.2-31.8c-1.7-12.1-4.8-24.1-8.2-35.9
			c-5.9-19.9-10.2-40.2-12.7-60.8c-0.6-12.3-1.2-24.6-1.7-37c-0.1-1.9-1.1-4.5,0.9-5.4c1.8-0.8,2.6,2,4.2,2.8
			c0.6,0.3,1.2,0.3,1.9,0.5c1.2,2.4,3.4,4.3,4,7.1c-1.3,0.9-0.8,1.9-0.5,3.1c2.3,11.2,4.7,22.3,6.6,33.6c2.1,12.9,4.1,25.8,8.6,38.1
			c1.9,5.2,3.2,10.8,4.3,16.3c2.2,10.7,3.2,21.6,4.3,32.5c1.9,19.4,2.5,38.7-1.6,57.9c-6,28.4-13.3,56.5-20.2,84.6
			c-3.5,14.3-7.7,28.5-10.4,43c-3.6,14.3-7.5,28.6-10.9,42.9c-5.8,24.6-11.5,49.2-21.8,72.4c-4.1,9.2-0.4,14.3,9.7,14.7
			c1,1,2,2.1,3.5,2.5c0.2,0.2,0.4,0.5,0.6,0.7c-0.1,2.2,1.6,2.5,3.2,3.1c5.7,2.1,11.4,4.2,17.1,6.4c3.5,1.4,7,1.7,10.5,0.2
			c0.4,0.7,0.7,1.4,1.1,2.1C349.4,693.7,348.6,694.5,341.8,695.5L341.8,695.5z"/>
		<path class="st5" d="M275.9,647.2c0.4-9,0.8-18,1.2-27c2.8-5.3,1.6-10.3-1.1-15.2c2.4-4.9,3.9-10.1,5.7-15.2
			c0.7-2,0.4-2.7-1.4-3.3c-2.8-0.9-5.7-1.7-8.5-2.8c-4.3-1.6-5.1-4.8-1.9-8c3.6-3.4,4.9-7.4,4.3-12.1c-1.1-9-0.6-18.2-2.2-27.1
			c0.1-0.5,0.1-0.9,0.2-1.3c2-2.5,1-5.3,1-8.1c0.8-2.6,0.8-5.3,0.5-8c0.5-2.7,0.7-5.3,0.4-8c0.5-2.6,1-5.3,0.4-8
			c0.7-2.6,0.7-5.3,0.5-7.9c0.5-2.7,0.9-5.3,0.4-8.1c0.8-2.6,0.8-5.2,0.4-7.9c0.7-2.6,0.7-5.3,0.4-8c0.5-2.7,1-5.3,0.3-8
			c0.8-3.9,1-7.9,0.7-11.9c2.7-10,2.5-20,0.8-30.1c0.6-2.8,1.8-5.7-2.1-7.1c-1.3-2.4-3.2-2-4.8-0.6c-1.6,1.4-2.5,3.4-3.1,5.4
			c-2.4,0.8-4.9,0.7-7.4,0.6c0.3-1.3,0.5-2.7,0.8-4c1.9-2.8,3.9-5.5,5.8-8.3c0.7-0.5,1.3-1.1,2-1.6c2.4-1.4,3.3-3.7,3.3-6.4
			c0.9-2.6,0.7-5.3,0.5-8c0.5-2.7,0.7-5.4,0.3-8.1c0.6-2.6,1-5.3,0.5-8c0.7-2.6,0.7-5.3,0.4-8c0.4-2.6,1.1-5.3,0.5-8
			c0.8-2.6,0.7-5.3,0.5-8l0.6-7.1c3-1,5.5,0.4,8,1.6c-0.8,15.2-2.4,30.4-2.5,45.6c-0.6,2.6-0.7,5.3-0.5,8c-1,3.7,1.4,5.6,4,7.2
			c0.1,0.4,0.3,0.6,0.6,0.7c0.2,0.2,0.4,0.5,0.6,0.7l0.9,0.6c3.5,4.5,3.9,10.1,5.6,15.3c-2.5,9.3-3.1,18.9-4,28.5
			c-2,21.4-4.2,42.9-3.3,64.5c-1.4,6.1-1.5,12.3-1.8,18.5c-0.6,2.3-1,4.7-0.1,7l-0.9,11.9c-0.6,3.9-1.4,7.7-1.7,11.6
			c-0.4,4.6,0.7,5.4,5.8,4.5c2.1,1.1,4.3,1.9,6.6,1c0.2,0.1,0.5,0.2,0.6,0.4c0.9,2.6,2.5,4.8,4.5,6.7c0.1,1.7,0.1,3.4,0.2,5.1
			c0,1.4-0.1,2.8-0.1,4.2c-1.2,1.5-3,2.6-3.6,4.6c-0.9,0-1.7,0.1-2.6,0.1c-5.1,0.5-3.1,4.2-3.1,7c-0.8,2.6-0.9,5.3-0.2,8
			c-0.4,2.7-0.6,5.4,0,8.1c0,0.9,0.1,1.8,0.2,2.7c-2.1,6.6-2.5,13.4-1.9,20.3c-1.3,3.3-2.1,6.5-0.1,9.8c-0.2,1-0.4,2-0.6,3
			c-0.9,1.2-0.7,2.5-0.4,3.9c-0.6,2.7-0.8,5.3-0.1,8c-0.6,2.7-0.7,5.4-0.1,8.1c-0.5,2.6-0.6,5.3-0.1,7.9c-0.5,1.2-0.4,2.4-0.1,3.6
			c-1.4,2.4-3.1,4.7-4.2,7.2c-1.7,4.1-4.1,5.2-8,2.8c-1.3-0.8-2.7-1.2-4-1.8c0.2-1.3,0.5-2.6,0.7-4c3-1.8,4.2-4.7,4.3-7.9
			c0.2-7.9,0-15.8,0-23.7C275.9,653,274.7,649.9,275.9,647.2L275.9,647.2z"/>
		<path class="st6" d="M237,423.6c-1.9,3.1-4.5,5.4-7.8,6.8c-0.3-0.3-0.4-0.3-0.7-0.6c0.6-1.8,1.5-3.4-0.2-5.5
			c-4.4-5.2-8.6-10.7-12.8-16.1c0.2-1.4-0.3-2.6-0.8-3.9c-4-9.7-11.1-17.2-17.6-25.1c-6.4-7.9-12.4-16-15.9-25.7
			c-0.8-2.3-1.4-4.6,0.2-6.6c2.5-3.1,5-6.3,7.9-8.9c7.4-6.5,16.1-11.1,24.3-16.4c9.3-6,19-11.4,28.2-17.4
			c11.2-7.2,23-12.8,36.5-12.9c16.2-0.1,29.9-6.5,43.1-14.8c4.7-3,5.2-2.9,7.1,2.5c3.7,10.4,5.4,21.2,4.9,32.2
			c-2.9,0.3-5.6-0.5-8.3-1c-6.8-1.5-13.7-2.4-20.6-1.9c-4,0.3-7.9,1-11.8,1.6c-1.1-0.2-2.7-0.5-3.8-0.7c-3.6-2-7.2-3.9-11.4-4.1
			c-2.6-1.2-5.2-1.3-7.9-0.3c-6.6,0.6-11.2,5-16.2,8.8c-2.7,1-4.7,2.9-6.9,4.6l-2.7,1.5c-4.8,2.8-9.6,5.6-14.4,8.3l-8.9,4.3
			c-1.4-0.2-1.4,1.2-2,1.9c-1.9-0.6-3.6,0.1-5,1.4c-5,2.1-10.4,3.4-14.2,7.6c-0.7,0.2-1.4,0.4-2,0.7c-3.4,1.5-5.5,4-6.6,7.5
			c-1.4,2.6-1.7,5.3-0.4,8c-0.1,2,1.1,3.5,2.1,5c5.1,6.9,10.4,13.7,15.7,20.5c1.8,2.2,2.3,5.4,5,6.9c2,4.5,5,8.4,8.1,12.1
			c0.3,1.5,0.9,2.6,2.2,3.5c1.3,3,3.4,5.4,5.9,7.4c0,0.3,0.1,0.5,0.4,0.5c2.2,2.9,4.2,5.9,7.5,7.8
			C237.1,423.2,237.1,423.4,237,423.6L237,423.6z"/>
		<path class="st7" d="M228,430.3c0.4,0,0.8,0,1.1,0c-0.1,6.9-4.3,11.3-9.1,15.4c-29.5,25-50.8,55.1-58.6,93.6
			c-2.8,13.5-3.3,27.3-3.4,41.1c-0.1,14.1-1.8,28.1-7.2,41.4c-0.5,1.2-0.2,3.2-2.3,3.5c-0.3-0.6-0.7-1.3-1-1.9
			c0-3.1-0.3-6.2-1.6-9.1c-0.3-2.3-0.6-4.7-0.9-7c0.2-2.7,0.2-5.5-0.6-8.1c0.5-2.7,0-5.3-0.5-7.9c0.7-2.7,1-5.5,0.3-8.2
			c0.5-2.6,0.6-5.1,0.2-7.7c0.7-2,0.7-4.1,0.5-6.2c0.7-0.6,0.7-1.3,0.4-2.1c0.7-2.5,1.2-5.1,1-7.8c0.7-3.7,1.3-7.5,2-11.2
			c0.3-1.6,0.6-3.2,0.9-4.8c2-5.1,3.2-10.5,4.1-15.9c1.4-2.2,2-4.7,2.6-7.2c2.7-5.4,4.8-11,6.5-16.7c2.6-5,5.3-9.9,7.9-14.9
			c3-4.9,6.6-9.4,8.8-14.8c0.8-1,1.6-1.9,2.4-2.9c2.5-2.1,4.2-4.7,5.7-7.5c0.6-0.7,1.2-1.4,1.9-2c2.5-1.5,4.5-3.6,6.1-6
			c0.7-0.6,1.3-1.3,2-1.9c2.6-1.4,4.7-3.4,6.4-5.8c0.6-0.6,1.3-1.2,1.9-1.8c2.7-1.7,4.9-3.9,6.6-6.5c0.4-0.5,0.8-1.1,1.3-1.6
			c1.9-1,3.1-2.5,4.1-4.3C221.5,433.9,224.7,432.2,228,430.3L228,430.3z"/>
		<path class="st5" d="M254.1,467.2c1.4,6.6,2.9,13.3,4.2,20c1.1,5.3,1.7,10.6,4.9,15.5c3,4.6,1,10.1,0.5,15.1
			c-0.6,5.6-0.4,11.3-0.7,16.9c-0.1,2.1,0.8,3.9,2.2,5.4c0.1,0.2,0.3,0.3,0.4,0.4c-1.8,1.6-1.4,3.2-0.2,5c-0.4,0.6-0.4,0.7-0.8,1.4
			c-4.2-0.2-6.7-2.8-8.5-6.3c-4.6-8.5-7.5-17.5-7.9-27.2c0.4-4.3,0.7-8.7,0.2-13c0.3-0.3,0.6-0.7,0.9-1c-0.3,0-0.6,0-0.8,0.1
			c1.1-1.1,1.4-2.4,1.1-3.9c0.9-2.6,0.9-5.3,0.5-8.1c0.1-0.9,0.3-2.3,0.5-3.3c1.3-2.7,1.2-5.3-0.8-7.8c-2-2.5-1.9-5.1-0.2-7.8
			C251,468,252.6,467.6,254.1,467.2L254.1,467.2z"/>
		<path class="st8" d="M236.4,452.5c-9.9,6.7-19.8,13.4-28,22.2c-7.2,7.6-14.1,15.8-18.8,24.9c-10.1,19.8-17.5,40.8-20.6,63.2
			c-1.7,12.8-2,25.5-1.8,38.3c0.3,15.6,4.4,30.5,8.2,45.4c0.2,0.8,0.4,1.6,0.6,2.4c0,0.3-0.2,0.6-0.5,1.2c-2.7-1.8-3.6-4.7-4.4-7.3
			c-3.9-12-5.9-24.4-7.3-37c-2.7-25.6,0.7-50.4,8.5-74.7c8.9-27.9,24.5-51.5,47.2-70.1c4.9-4,9.6-8.2,16.3-8.9
			C236.1,452.1,236.2,452.3,236.4,452.5L236.4,452.5z"/>
		<path class="st7" d="M177.4,652.4c10.8,24.6,26.7,44.7,50.4,58C212,709.4,177.7,670.8,177.4,652.4z"/>
		<path class="st5" d="M246.6,533.6c2.5,0.1,2.5,2.3,3,3.8c1.9,6.1,3.6,12.3,5.4,18.5c0.4,1.2,1.1,2.7-0.2,3.7
			c-1.4,1.1-2.8,0.2-4-0.7c-2.4-1.7-3.5-4.3-4.4-7c1.4-2.8,1-5.7,0.8-8.7C247,540,246.8,536.8,246.6,533.6L246.6,533.6z"/>
		<path class="st4" d="M254,467.2c-1.6,0.4-3.1,0.8-4.7,1.2c-2.4-0.1-4.4-1.4-6.4-2.6c0-0.2,0-0.5,0.2-0.6c3-1.9,1.4-4.4,0.8-6.8
			c0.9-3.1,3.2-4.2,6-3.8c2.8,0.4,3.2,2.8,3.3,5.3C253.3,462.3,254.5,464.7,254,467.2L254,467.2z"/>
		<path class="st5" d="M237.8,583.8c0.4-2.9,0-5.8-0.9-8.6c0-0.6,0-1.3-0.1-1.9c5-0.2,9.1,2.6,13.5,4.3c2.3,0.9,2,2.7-0.2,3.3
			C246.1,582.2,242.2,584.3,237.8,583.8L237.8,583.8z"/>
		<path class="st5" d="M261.4,453.1c3.4,8.1,2,14.8,0.6,21.5c-0.1,0.7-0.7,1.7-1.7,1.3c-0.5-0.2-1-0.9-1.1-1.4
			C258,467.6,258.2,460.9,261.4,453.1z"/>
		<path class="st5" d="M245.7,563.3c2.3-1.1,4.2,0.2,5.9,1.4c1.3,0.9,1.8,2.4,1.5,4c-0.4,1.9-1.9,2.1-3.5,2.1c-3.8,0-7.6,0.2-10.5-3
			C241.7,566.8,245.3,567.4,245.7,563.3L245.7,563.3z"/>
		<path class="st8" d="M268,418.9c0.6-2,1.5-4,3.1-5.4c1.7-1.4,3.5-1.8,4.8,0.6c-2.1,1.5-2.2,3.7-1.6,6
			C272.2,420,269.8,421.1,268,418.9L268,418.9z"/>
		<path class="st8" d="M275.9,647.2c-1.2,2.6,0,5.7-1.8,8.2c-3.5-3.6-2-7.7-1.9-12C275,644,274.8,646.1,275.9,647.2L275.9,647.2z"/>
		<path class="st8" d="M235.9,452c0.3-0.1,0.5-0.2,0.8-0.3c-0.1,0.2-0.2,0.5-0.3,0.8C236.2,452.3,236.1,452.1,235.9,452L235.9,452z"
			/>
		<path class="st9" d="M336,265.3c2.5,20.6,6.9,40.9,12.7,60.8c3.5,11.8,6.5,23.7,8.2,35.9c1.5,10.8,0.1,21.7-4.2,31.8
			c-5.6,13.2-7.4,27.1-9.6,41.1c-5.5,33.7-10.6,67.5-19,100.6c-1.4,5.5-3.4,10.8-5,16.2c-0.5,1.5-1.5,1.5-2.7,1.6
			c-0.1-0.7-0.2-1.3-0.3-2c0.1-1.3,0.2-2.6,0.3-3.9c3.5-3.9,3.8-8.8,0.7-12.2c1.2-5.2,2.2-10.4,2.3-15.8c1.1-2.6,1.4-5.3,1.5-8.1
			c1-5,2-10,3-15c-0.1-3.7,1.7-7.3,1.1-11.1l0,0c2.1-1.5,1.2-4,1.6-6c2.1-11,4.6-21.9,5.6-33.1c1.5-2.1,1.2-4.6,1.8-6.9
			c1.3-2.5,1.7-5.2,1.8-8c1-2.6,2-5.2,2.2-8c1.1-2.5,2.1-5.1,2.3-7.9c3-4.9,4.3-10.5,6.3-15.8c3.1-5.1,5.8-10.5,7.6-16.3
			c1.4-3.1,2-6.3,0.5-9.5c-1.5-5.3-4.3-10-6.8-14.8c-0.8-5-4.9-8.7-5.8-13.7c-0.3-0.5-0.5-1-0.8-1.5l0.1-0.3l-0.2-0.2
			c0-1.6-1-2.8-1.9-4c0.3-7-0.2-13.9-1.2-20.8c-0.6-5.8-1.3-11.5-1.8-17.2c-1.1-14.1-3.9-27.9-8.6-41.2c-1-2.9-2.5-3.8-5.5-3.8
			c-13.3,0.1-26.5-0.2-39.8-1.8c-22.9-2.7-43.1-11.3-61.2-25.4c-3.1-2.4-5.3-6.6-10-6.8c-0.4-0.7-0.9-1.4-1.3-2.1
			c1-1.6,0.9-3.2,0.2-4.9c0.5-2.7,0.4-5.3,0-8c0.7-1,0.7-2,0.1-3c0.4-1.7,0.7-3.3,0.2-5.1c0.7-1.6,0.6-3.3,0.4-5
			c0.9-4.3,1.3-8.6,1.3-12.9c0.2-2,0.5-4,0.7-6c2.1-7.2,3.2-14.5,1.2-21.9c0.1-2.6,0-5.3-2.5-6.6c-2.6-1.3-3.6,1.6-5.3,2.8
			c-1.4,0.9-2.6,2-3.9,3c-11.1,8.8-22.6,17.2-36.1,21.6c-22.3,7.3-45.1,13.5-67.6,20.2c-14.8,4.4-30.9,4.6-44.5,13.3
			c-1.3,0.8-2.8,1.1-4.1-0.3c3.4-7.2,9.9-9.5,17-11.1c2.8,1.1,5.4,0,8-0.6c20.3-4,40-10.4,59.6-17.1c13.6-4.6,27.9-7.6,40.6-14.6
			c11.2-6.1,19.8-14.6,18.6-29c2.6-5.2,6-9.9,7.4-15.7c1.6-2.5,1.9-5.3,2.1-8.1c0.9-2.6,0.7-5.2,0.3-7.8c0.1-0.7,0.3-1.4,0.4-2.1
			C222,96.1,239,89.1,255.6,81c4.7-2.3,10-3.7,13.7-7.8c6.3,6.2,5.9,12.9-1.1,20.1c-1.5,0-2.4,1-3.4,1.9c-8.4,7.8-14.8,17-20.4,26.9
			c-9.4,16.5-14.4,34.5-18.1,53c-2.3,11.5-3.8,23,2,34c1.8,3.4,3.6,6.8,4.9,10.4c3.1,8.2,7.5,14.1,17.5,11.9c0.2,0,0.3,0,0.5,0
			c19,1.9,38,3.1,57,3.9c15.1,0.6,15.8,0.9,21,15.1C331.1,255.4,331.9,261.1,336,265.3L336,265.3z"/>
		<path class="st4" d="M336,265.3c-4-4.2-4.9-9.9-6.8-15.1c-5.2-14.2-5.9-14.5-21-15.1c-19-0.7-38-1.9-57-3.9c-0.2,0-0.3-0.1-0.5,0
			c-10,2.2-14.4-3.7-17.5-11.9c-1.3-3.6-3.1-7-4.9-10.4c-5.8-11.1-4.3-22.5-2-34c3.7-18.5,8.7-36.5,18.1-53
			c5.6-9.8,12.1-19.1,20.4-26.9c1-0.9,1.9-1.9,3.4-1.9c-2.5,6.1-7,11.2-8.9,17.7c-0.8,2.8-1.8,5.7-2.7,8.5c-1.9,6.2-1.7,6.5,4.6,7.7
			c3.1,0.5,6.2,0.8,9.3,1.2c5.2,0.6,9.6,2.2,13.5,6.2c10.5,10.6,20.4,21.7,29.5,33.5c4.9,6.3,7.2,13.3,6.5,21.3
			c-2.1-1.9-4.1-3.8-6.2-5.7c-2.1-1.9-3.3-1-3.7,1.4c-0.2,1.1-0.2,2.3,0,3.5c1,8.2,2,16.4,2,24.7c0,2,0.6,3.2,2.8,3
			c1.8,1.3,3.5,0.4,5.2-0.2c4.6-1.4,9.2-2.8,13.8-4.3c3.8-1.3,5.7,0.2,6.1,4c0.4,3.4,1.5,6.8,1.1,10.4c-0.6-0.1-1.3-0.2-1.9-0.5
			c-1.6-0.8-2.5-3.6-4.2-2.8c-2,0.9-1,3.6-0.9,5.4C334.7,240.7,335.3,253,336,265.3L336,265.3z M276,170.6c0.1-0.9-0.5-2.8-1-4.7
			c-1.7-6.7-9.8-10.6-15.5-7.2c-3.4,2-6.5,4.6-9.1,7.7c-6.8,8.4-10.6,18.3-14.9,28c-1.8,4.1-0.7,7.9,3.7,10c4.5,2.1,9,4.4,13.6,6.3
			c5.9,2.5,9.2,1.1,11.8-4.7c1.3-3,2.8-6,4.1-9.1C272.1,188.8,275.5,180.8,276,170.6L276,170.6z"/>
		<path class="st0" d="M315,216.2c-2.2,0.2-2.9-1-2.8-3c0.1-8.3-1-16.5-2-24.7c-0.1-1.1-0.1-2.4,0-3.5c0.4-2.4,1.6-3.3,3.7-1.4
			c2.1,1.9,4.1,3.8,6.2,5.7c0.2,4-1.8,7.4-3.4,10.8c-0.4,0.9-0.9,2,0.2,2.6c0.9,0.5,1.5-0.4,2.1-0.9c4.4-3.3,8.2-7.3,12.1-11.1
			c2.4-2.3,2.4-4.6,0.6-7.1c-6.5-9-13.2-17.8-20.7-26.1c-12.1-13.4-23.1-27.9-36.3-40.2c-1.8-1.7-1.1-3.2-0.6-4.9
			c3.5-12.3,8.1-24.2,12.4-36.2c1.1-3.2,2.2-3.2,4.2-0.9c7.9,8.5,12.3,18.6,14.5,30c1.3,6.7-0.2,13.2-0.2,19.7
			c0,2.8,0.7,4.9,2.4,7.3c12.2,16.9,24.1,34.1,36.4,50.9c1.7,2.3,0.4,4,0.3,6c-1.5,1.5-3,3-4.6,4.5
			C331.3,201.1,323.2,208.7,315,216.2L315,216.2z"/>
		<path class="st10" d="M269,73.1c-3.7,4.1-9,5.5-13.7,7.8c-16.5,8.2-33.6,15.1-51.3,20.3c-0.6-2.3-1.2-4.7-1.9-7
			c0.8-0.1,1.7,0,2.4-0.3c16.2-6.4,32.3-12.8,48.5-19.2c1.9-0.7,4.8-0.6,4.7-3.5c-0.1-2.9-3-2.8-4.9-3.4
			c-15.9-4.5-31.8-9.2-47.8-13.3c-12.5-3.2-25-6.4-37.9-7.2c-2-2.6-2.9-3.7-4.9-6.3c1.1-5.2-4.5-8.7-2.9-14.1
			c17.3,0,32.5,7.6,48.1,13.7c21.2,8.2,40.8,19.5,60.2,31.1C268.2,72.1,268.6,72.7,269,73.1L269,73.1z"/>
		<path class="st10" d="M315,216.2c8.2-7.5,16.3-15.1,24.6-22.4c1.6-1.4,3.1-3,4.6-4.5c3.4-0.9,5.8,1.2,8.2,3.1
			c-0.5,2.2-1.2,4.4-1,6.8c-0.8,2.6-1.4,5.3-1,8.1c-0.6,2.6-1.1,5.2-0.6,7.9c-0.6,2.7-0.6,5.4-0.2,8.1c-0.5,2.6-0.4,5.2,0.1,7.8
			c-0.4,1-0.4,2.1,0.1,3.1c-0.2,0.4-0.4,0.7-0.5,1.1c-1.8,0.1-2.7-1.5-4.2-2.1c-0.6-2.8-2.7-4.7-4-7.1c0.4-3.5-0.7-6.9-1.1-10.4
			c-0.4-3.8-2.3-5.3-6.1-4c-4.6,1.5-9.2,2.9-13.8,4.3C318.5,216.6,316.8,217.5,315,216.2L315,216.2z"/>
		<path class="st4" d="M350.4,172c1,0.4,1.5,1.2,1.7,2.2C350.7,174.1,350.1,173.4,350.4,172z"/>
		<path class="st2" d="M348.3,685.1c-3.5,1.5-7,1.2-10.5-0.2c-5.7-2.2-11.4-4.3-17.1-6.4c-1.6-0.6-3.3-0.9-3.2-3.1
			c1.8-0.7,3.6-1.4,4.7-3.2c4.9-4.7,7.6-10.8,10.2-16.9c0.9-0.6,1.1-1.6,1.2-2.5c2.4-2.3,1.8-4.7,0-7c-3.6-4.5-7.3-8.8-12.4-11.6
			c-0.1-2.1,0-4.3,1.2-6.2c0.5,0.5,1,0.9,1.5,1.4c0.1,1,0.8,1.5,1.6,1.9l6.4,7.1c0.3,1,1.1,1.7,2,2.1c1.4,1.6,2.4,4,5,3.3
			c2-0.5,2.4-2.5,2.5-4.5c1.8-5.3,3.6-10.5,5.4-15.8c2.6-6.4,2.3-7.3-3.7-9.7c-3.3-1.3-6.7-2.5-10-3.8c-1.4-0.6-2.7-1.1-4.1-1.7
			c0.5-1.2,0.9-2.4,1.3-3.6c5.1,2,10.1,4,15.2,6c2,0.8,4.3,1.8,5.6-0.9c1-2.2,0.5-4.2-2-5.2c-2.5-1.2-5.6,0.7-7.9-1.7
			c-3.2-1.5-6.6-1.6-10-2.2c-0.2-1.8,0.5-3.2,1.7-4.5c2.7,0.5,5.4,0.9,8.1,1.4c2.6,1,5.2,2,8.1,1.7c6.7,0.2,3.4-5,4.3-8
			c1-2.6,1-5.3,0.8-8c0.9-2.6,1.2-5.3,0.9-8c1-3.2-0.1-4.9-3.5-4.9c-3.1,0-6.3,0.2-9.5,0.4c0.7-1.5,1-3.1,0-4.7
			c2.3-0.1,4.7-0.2,7-0.3c1.9,0.4,4,1.4,4.8-1.5c0.7-1.5,1-3-0.2-4.4l-0.3-0.3c-0.7-0.9-1.5-1-2.4-0.2c-0.7,0.3-1.4,0.5-2.1,0.8
			c-1.6,0.4-3.3,0.7-5,1.1c0.4-1.7,0.8-3.4,1.1-5.2c4.1,0,7.6-1.3,8.9-5.5c1-3.3,0.6-6.5-3-8.4c2-14.4,5.9-28.3,11.5-41.8
			c0.9-2.2,1-5,3.5-6.3c0.4,1,0.8,1.9,1.3,2.9c0.7,2,1.4,4.1,2,6.1c1.1,5.5,2.1,10.9,4.1,16.2c0,2.7,0.6,5.4,1.6,7.9
			c0.4,2.7,0.9,5.4,1.3,8.1c0.1,1,0.2,1.9,0.3,2.8c-0.3,0.8-0.3,1.5,0.3,2.1c0.2,1,0.4,1.9,0.6,2.9c-0.2,2-0.4,4.1,0.6,6
			c-0.3,3.4-0.1,6.7,0.6,10c-0.2,10.7-0.4,21.4-0.6,32.1l-0.2,4c-0.6,0.6-0.7,1.3-0.3,2c-0.1,0.7-0.2,1.3-0.3,2
			c-0.9,5.3-1.8,10.6-2.7,15.9c-1.2,2.5-1.5,5.3-1.9,8c-2.2,5.1-2.9,10.6-3.9,16c-1.2,2.5-1.9,5.2-2,8c-2.1,5.3-4.3,10.5-6.4,15.8
			c-1.8,2.5-3,5.2-4.1,8.1c-3.2,4-5.2,8.6-7.5,13.1C348.9,684.5,348.6,684.8,348.3,685.1L348.3,685.1z"/>
		<path class="st11" d="M345.2,233.2c1.5,0.6,2.4,2.2,4.2,2.1c0.3,0.3,0.5,0.6,0.8,0.9c-0.2,1.3,0.5,2.2,1.3,3
			c2.7,7.4,6.8,13.9,13.6,18.4c1.8,1.9,3.6,3.7,5.3,5.6c0.6,2.3,0.9,4.6,2.4,6.6c0.1,0.5,0.2,1,0.3,1.5c0.1,2.9,1.2,5.5,2.5,8
			c1,3.2,2.3,6.2,5.6,7.9c0.9,1.2,1.8,2.5,2.7,3.7c0.3,1.4,0.6,2.8,0.9,4.2c-0.3,0.8-0.1,1.5,0.5,2.1l0.6,3c0.3,2.5-0.4,5.2,2.2,7
			c-0.4,1.4-1.2,2.9,0.4,4.1c0.4,2.7,0.3,5.5,1.7,7.9c0.1,1,0.3,2,0.4,2.9c-2.8,1.7-1.4,4.6-1.8,6.9c-2.9,15.8-5.8,31.5-7.8,47.4
			c-1.7,12.9-2.5,26-5.8,38.7c-10.7,41.6-22.1,82.9-36.4,123.4c-0.5,1.4-0.4,3.5-2.6,3.8c2.7-14.5,6.9-28.7,10.4-43
			c6.9-28.2,14.2-56.2,20.2-84.6c4-19.2,3.5-38.5,1.6-57.9c-1.1-10.9-2.2-21.7-4.3-32.5c-1.1-5.5-2.3-11.1-4.3-16.3
			c-4.6-12.4-6.5-25.2-8.6-38.1c-1.9-11.2-4.3-22.4-6.6-33.6C344.4,235.2,343.9,234.1,345.2,233.2L345.2,233.2z"/>
		<path class="st9" d="M335.9,542.3c2.3-0.3,2.1-2.4,2.6-3.8c14.2-40.5,25.7-81.9,36.4-123.4c3.2-12.6,4.1-25.7,5.8-38.7
			c2-15.9,4.9-31.6,7.8-47.4c0.4-2.3-1-5.2,1.8-6.9c0.3,1.6,0.6,3.1,0.9,4.7c0,0.8,0.1,2.1,0.1,2.9c-0.1,0.5,0,1.1,0.2,1.5
			c0.2,1.2,0.6,3.1,0.8,4.3c0,2.6,0.1,5.1,0.2,7.7l-0.4,5c-0.5,5-1,10-1.5,15c-0.1,1.3-0.2,2.6-0.3,4c-1,2.5-1.5,5.2-1.2,8
			c-0.2,1.7-0.4,3.4-0.6,5.1c-2,4.1-2.3,8.5-2.5,12.9c-1.2,2.1,0.4,4,0.3,6c-0.2,5.7-0.5,11.4-0.7,17.1c-1.7,1.3-1.3,3.2-1.4,5
			c-1.1,3.3-1.4,6.7-1.6,10.1c-0.2,0.7-0.4,1.7-0.6,2.3c-0.5,0.8-0.5,1.7-0.2,2.6c-0.2,1-0.3,2-0.5,3c-2.3,5.1-2.6,10.6-3.6,16
			c-1,2.5-2,5.1-2.2,7.9c-1.2,2.6-2,5.3-2.2,8.1c-0.3,1.3-0.7,2.6-1,4c-1.3,1-1.2,2.5-1.5,3.8c-1.3,2.6-2.3,5.3-2.7,8.1
			c-1.6,2-1.8,4.4-2,6.9c-2.6,1.3-2.7,4.1-3.5,6.3c-5.5,13.4-9.5,27.3-11.5,41.8c-3.4,4-5.6,8.5-5.9,13.9c-0.4,1.7-0.8,3.4-1.1,5.2
			c-1.4,1.3-3.4,2.4-1.9,4.9c1,1.6,0.6,3.1,0,4.7c-2.2,0.7-4.2,1.6-4.4,4.3c-2,2.3-2.7,5.2-3.2,8.1c-1,3.3-2.4,6.5-1.6,10.1
			c0,1,0,2,0,3c-1.2,1.3-1.9,2.7-1.7,4.5c-1.1,1.1-1.2,2.5-0.9,4c-0.5,1.2-0.9,2.4-1.3,3.6c-2.3,1.8-2.4,4.4-2.8,7
			c-1.3,4.2-2.6,8.5-3.9,12.7c-1.2,1.9-1.3,4-1.2,6.2c-1.1,1.5-1.6,3.3-1.6,5.1c-1.3,2.5-2.1,5.1-2.4,7.9c-2.6,5.1-3.6,10.6-4.6,16
			c-0.9,2.7-0.8,5.4,0.8,7.9v1.2c-10.2-0.4-13.8-5.5-9.8-14.7c10.3-23.2,16-47.8,21.8-72.4C328.5,570.9,332.3,556.6,335.9,542.3
			L335.9,542.3z"/>
		<path class="st2" d="M287.2,638.4c-0.6-6.9-0.2-13.7,1.9-20.3c1.5,6.3,4.1,12.2,8.1,17.3c0.5,6.5-0.7,12.5-4.5,17.8
			c-1.1-4.3-2.2-8.6-2.5-13.1C290.1,638.5,289.9,635.8,287.2,638.4L287.2,638.4z"/>
		<path class="st2" d="M298,578.3c-1.9-2-3.6-4.1-4.5-6.7c2.5-0.5,5.1,0.4,7.4-0.9c4.6,0,8.6-2,12.6-4.2c0.4,3.4,0.2,6.7-2.7,9.1
			c-3.4-0.8-6.8-1.4-10,0.8C299.9,577.1,298.9,577.7,298,578.3L298,578.3z"/>
		<path class="st2" d="M305.2,598c-2.9-1.8-5-5.2-9-5c-0.5-0.3-0.9-0.6-1.3-0.9c0.6-2,2.3-3.1,3.6-4.6c0.5,0,1.1-0.1,1.6-0.2
			c2.2,3.6,5.1,1.2,7.8,1C307.5,591.8,307.2,595.2,305.2,598L305.2,598z"/>
		<path class="st1" d="M332.2,446.1c-1,11.2-3.5,22.1-5.6,33.1c-0.4,2,0.5,4.4-1.6,6c-0.4-1.3,0.9-3.3-1-3.9c-1.4-0.4-2.1,1.2-3,2.2
			c-2.5,2.9-3.3,6.5-4.6,10c-0.4,1-0.7,2.2,0.2,2.7c1.3,0.8,2.2-0.6,2.7-1.5c2-3.1,3.8-6.4,5.7-9.6c0.5,3.8-1.2,7.3-1.1,11.1
			c-4,1.8-5.2,6-7.9,8.9c-1.1,1.5-2.2,3.1-3.2,4.6c-4.1,5.5-8,11-10.9,17.3c-1.6,1-2.1,2.4-1.8,4.1c-2.8,3.7-5.2,7.6-6.9,12
			c-2.3,3.4-3.3,7.2-4.6,11c-0.4,1.3-2.5,2.5-1,3.8c1.4,1.2,2.6-0.3,3.8-1.2c0.6-0.5,1.7-0.2,1.8-1.3c2.8-0.4,4.7-2.1,6.4-4.1
			c1.2-0.3,2.2-0.8,2.7-2c2.7-1.6,4.8-3.8,6.8-6.2c2.6-1.7,4.4-4.2,6.3-6.6c0.6-0.5,1.2-0.9,1.7-1.4c3.1,3.5,2.8,8.3-0.7,12.2
			c-3.7-1.7-5.2,1.9-7.6,3.2l-0.3,0.2c-3.4,2.6-7,5-10.3,7.9c-3.6,3.2-7,6.5-11.9,7.9c-3.7,1.1-0.5,2.5,0.4,3.7
			c-5,0.9-6.2,0.2-5.8-4.5c0.4-3.9,1.1-7.7,1.7-11.6c3.5,0.1,3-2.8,3.6-4.9c0-4.9-0.5-9.9,2.9-14c2.4-1.4,2.9-4.2,4.4-6.3
			c3.2-2.4,4.2-6.3,6.1-9.6c3.5-4.9,5.6-10.5,7.5-16.1c1.6-2.1,2.6-4.4,3.1-7c2.4-2.5,3.6-5.7,4.6-8.9c2-2.9,3.5-6,4.7-9.2
			c1-2.6,0.7-5.1-1.4-6.8c-2.7-2.2-5.3-4.9-9-5.7c-5.4-5-7.4-4.4-9.6,2.7c-1.1,3.6-2,7.3-3,10.9c-1,2.6-2.2,5.2-2.3,8.1l-2.2,7.9
			c-2.4,4.5-3.6,9.3-4.1,14.3c-1.6,2.2-1.7,4.9-2,7.5c-0.1-0.2-0.3-0.3-0.5-0.2c-0.9-21.6,1.2-43,3.3-64.5c0.9-9.5,1.5-19.1,4-28.5
			c0.5,0.1,1,0.2,1.5,0.4c1.7,1.1,3.5,2,5.6,2.3c3,1.5,6,2.9,9,4.4c2.8,1.5,5.6,3,8.3,4.5c1.8,1.9,4,3.2,6.5,4.1
			C326.2,442.1,329.2,444.1,332.2,446.1L332.2,446.1z M292.2,471.7c3.2-2.9,5.3-10.9,4.1-13.9c-0.7-1.7-1.9-1.5-2.4-0.2
			C292.2,462,290.7,466.6,292.2,471.7L292.2,471.7z"/>
		<path class="st1" d="M338,318.4c1,6.9,1.5,13.9,1.2,20.8c-4.7,0.3-9.4,0.6-14,1c-2.7-0.5-5.3-0.3-8,0.3
			c-9.7-0.4-19.2,1.1-28.9,1.7c-2.1,0.1-3.8,1.3-4.5,3.4c-2.5-1.2-5-2.5-8-1.6c-2.3-0.6-4.5-0.3-6.8,0.2c-2.6-0.2-5.3-0.3-7.9,0.4
			c-2.7-0.3-5.4-0.3-8.1,0.4c-1.3-0.5-2.6-0.3-3.9,0c-3.9-0.9-8.1,1.3-11.7-1.4c-0.3-0.3-0.5-0.5-0.8-0.8c-1.2-2.6-0.4-5.1,0.3-7.6
			l0.6-1.2c2.3-2.1,4.6-4.3,7-6.5c0.3,0.1,0.4,0,0.5-0.3c5.9-1.5,10.1-6.4,16.1-7.7c2.8-0.8,5.6-1.5,8.1-3
			c6.3-1.8,12.6-3.6,18.9-5.3c1,0.2,1.7-0.1,2.3-0.9c4.6-0.7,9.1-1.6,13.7-1.9c7-0.5,13.9,0.5,20.6,1.9c2.8,0.6,5.5,1.3,8.3,1
			C334.9,313.6,334.8,317.1,338,318.4L338,318.4z M308.1,320.5c-9,0.8-18.2,1-24,9.5c-1.1,1.5-2.5,2.8-1.6,4.8c0.9,2.1,3,2,4.8,1.7
			c7.5-1.1,15-2.3,22.5-3.8c5.3-1,4.6-5.5,4.4-9.2C313.8,319.5,310.4,320.8,308.1,320.5L308.1,320.5z"/>
		<path class="st10" d="M338,318.5c-3.2-1.3-3.1-4.8-4.8-7.1c0.5-11.1-1.2-21.8-4.9-32.2c-1.9-5.4-2.4-5.4-7.1-2.5
			c-13.2,8.3-27,14.7-43.1,14.8c-13.5,0.1-25.3,5.7-36.5,12.9c-9.3,6-18.9,11.5-28.2,17.4c-8.2,5.3-16.9,9.9-24.3,16.4
			c-3,2.6-5.4,5.8-7.9,8.9c-1.6,2-1,4.4-0.2,6.6c3.4,9.7,9.5,17.8,15.9,25.7c6.4,8,13.6,15.4,17.6,25.1c0.5,1.3,1,2.5,0.8,3.8
			c-2,0.2-3.4-0.9-4.7-2.3c-2.1-2.3-4.2-4.5-6.3-6.8c-0.2-0.6-0.2-1.4-0.6-1.9c-7.6-9.8-15.1-19.8-23.1-29.2c-6-7-7.7-13.8-4.4-22.7
			c4.4-12.1,11.9-21.3,22.4-28.4c10.4-7.1,21.5-13.1,31.3-21.1c10.2-8.2,11.1-11.7,4-22.4c-3.1-4.7-5.9-9.6-9.2-14.2
			c-3-4.1-4.9-9-9-12.4c-0.6-5.4-0.2-10.9-2.7-15.9c-0.4-2.8-0.7-5.5-2-8.1c0.2-0.4,0.3-0.5,0.5-0.9c4.6,0.2,6.8,4.4,9.9,6.8
			c18.1,14.1,38.3,22.7,61.2,25.4c13.2,1.6,26.5,1.9,39.8,1.8c2.9,0,4.4,0.8,5.5,3.8c4.7,13.4,7.4,27.1,8.6,41.2
			C336.7,307,337.4,312.8,338,318.5L338,318.5z"/>
		<path class="st4" d="M204.2,399.5c2.1,2.3,4.2,4.5,6.3,6.8c1.3,1.4,2.6,2.5,4.7,2.3c4.3,5.4,8.4,10.8,12.8,16.1
			c1.9,2.2,0.5,4,0,5.9c-3.2,1.8-6.5,3.6-10.4,3c-4-8.9-12.8-11.8-20.3-16.3c-7.9-6.1-15.7-12.1-23.6-18.2c-2.4-3-5.1-5.6-8.1-8
			c-3.7-5.3-8.4-9.7-11.3-15.6c-0.6-2.7-1.2-5.4-1.8-8c0.1-2.5,0.3-5.1,0.4-7.6c0.5-2.3,1-4.5,1.5-6.8c2.4-5.7,5.6-11,9-16.2
			c1-0.5,1.6-1.3,1.8-2.4c2.3-2.1,4.6-4.2,6.8-6.3c-0.7,7.1-0.9,14.2-0.9,21.4c0,8.2,2.3,15.6,6.8,22.5c4.8,7.5,11.3,13.5,17.3,19.9
			C197.9,394.7,200,398.3,204.2,399.5L204.2,399.5z"/>
		<path class="st0" d="M67,196.2c-7.1,1.5-13.6,3.9-17,11.1c-0.7,0.1-1.3,0.1-1.9,0.2c-1.8-0.2-3.6-0.8-5.1,0.7
			c-4.7,0.2-9.5-0.6-14.2,0.7c-8.1-2-14.2,2.7-20.7,6c-1.1,0-2.1,0-3.2,0L4.6,215c-1-1.1-2.3-0.8-3.5-0.8c-2.1-2.1-0.4-4.9-1.6-7.1
			c0.6-1.3,0.8-1.6,1.4-2.9c1.4-0.1,2.8-0.3,4.2-0.4c2.6,0.6,5.3,0.7,7.9,0.1c2.7,0.3,5.4,0.5,8.1-0.6c2,0.2,4,0.3,6-0.4
			c6.2-1.4,12.5-2.7,18.2-5.9c5.7-2.1,11.1-4.9,15.9-8.7c5.9-1.8,10.9-5.4,16-8.5c3.3-0.9,6.4-2.3,9.1-4.4c2.9-0.9,6.1-1.2,8-4
			c4.9-1.6,10.3-1.4,14.8-4.3c2.8-0.2,5.5-0.9,8-2c2.8-0.1,5.6-0.8,8.1-2.1c2.8-0.4,5.6-0.8,8-2.6c3-0.7,5.7-1.9,8-4
			c2.3-1.1,4.6-2.2,6.9-3.3c-0.6,6.2-4,10.8-8.9,14.2c-9.6,6.7-20.3,11.1-31.3,15C94.2,187,80.3,190.7,67,196.2L67,196.2z"/>
		<path class="st11" d="M67.2,196.2c13.3-5.6,27.2-9.3,40.8-14.1c11-3.9,21.7-8.3,31.3-15c4.9-3.4,8.4-8,8.9-14.2
			c1.7-1.6,4.3-0.3,5.9-2c1.1,0.2,2.2-0.1,3.1-0.7c3.2,1.1,5.1-2.2,8-2.2c5.7-1,11.3-2.2,16-5.9c5.1-0.8,8.4-5,12.9-7.2
			c1.2,14.4-7.4,22.9-18.6,29c-12.7,6.9-27,9.9-40.6,14.6c-19.6,6.7-39.2,13.1-59.6,17.1C72.6,196.2,69.9,197.4,67.2,196.2
			L67.2,196.2z"/>
		<path class="st10" d="M48,207.5c0.7-0.1,1.3-0.1,1.9-0.2c1.2,1.4,2.8,1.2,4.1,0.3c13.5-8.8,29.6-8.9,44.5-13.3
			c22.5-6.7,45.3-12.9,67.6-20.2c13.5-4.4,25-12.8,36.1-21.6c1.3-1,2.6-2.1,3.9-3c1.7-1.1,2.7-4.1,5.3-2.8c2.5,1.3,2.6,4,2.5,6.6
			c-3,1.6-5.9,3.3-8.3,5.7c-0.2,0.2-0.5,0.3-0.7,0.5c-3.9,1.9-7.3,4.5-10.5,7.5c-4.5,3.2-9.1,6.4-13.6,9.6c-2.6,1.2-5.3,2.5-7.9,3.7
			c-2,0.5-4.1,0.5-5.8,1.8c-0.6,0.2-1.6,0.5-2.2,0.6c-2.8,0-5.4,1-8,1.7c-2.7,0.2-5.4,0.6-8,1.8c-2.9-0.1-5.4,1-8,2
			c-1.7-0.3-2.4,0.8-3.1,2c-1.7,0-3.5-0.8-4.9,0.9c-2.9,0.4-5.5,1.6-8,3c-5.3,1.7-10.6,3.4-16,5.1c-2.7,0.7-5.3,1.4-8,2.2
			c-3,0.6-6,1.2-9,1.8c-2.1,1.8-5,0.1-7.2,1.7c-5.3,0.6-10.7,0.6-15.8,2.2c-1.8-0.1-3.5,0-5.1,1.1c-8.2,2.8-16.5,5-25.2,3.9
			c-3.4-0.4-7.6,0.8-10-3.2c4.7-1.2,9.5-0.4,14.2-0.7C44.8,209.7,46.6,210.1,48,207.5L48,207.5z"/>
		<path class="st3" d="M276,170.6c-0.5,10.1-3.9,18.2-7.4,26.2c-1.3,3.1-2.7,6-4.1,9.1c-2.5,5.8-5.8,7.2-11.8,4.7
			c-4.6-1.9-9.1-4.1-13.6-6.3c-4.4-2.1-5.5-5.9-3.7-10c4.3-9.7,8.1-19.6,14.9-28c2.6-3.1,5.7-5.7,9.1-7.7c5.8-3.4,13.8,0.5,15.5,7.2
			C275.5,167.8,276.1,169.7,276,170.6L276,170.6z"/>
		<path class="st6" d="M202.4,94.2c-0.2-0.2-0.5-0.3-0.9-0.4c-0.5-1.7-2.2-2.4-3.1-3.7c-0.3-1.3-1-2.3-2.3-2.9
			c-1.4-2.5-3.4-4.5-5.6-6.2c-0.2-0.9-0.7-1.5-1.6-1.8c-3.9-5.3-7.8-10.7-11.7-16c-0.8-2.2-1.9-4.1-3.7-5.6c-0.5-0.8-1-1.6-1.5-2.3
			c-1.6-2.7-3.1-5.3-4.6-8c12.9,0.9,25.4,4.1,37.9,7.2c16,4.1,31.9,8.8,47.8,13.3c1.9,0.5,4.8,0.5,4.9,3.4c0.1,3-2.8,2.8-4.7,3.5
			c-16.1,6.4-32.3,12.8-48.5,19.2C204.1,94.1,203.2,94.1,202.4,94.2L202.4,94.2z"/>
		<path class="st7" d="M308.1,320.5c2.3,0.3,5.7-1,6,3.1c0.2,3.7,1,8.2-4.4,9.2c-7.5,1.4-15,2.6-22.5,3.8c-1.8,0.3-3.8,0.4-4.8-1.7
			c-0.9-2,0.6-3.3,1.6-4.8C290,321.5,299.1,321.4,308.1,320.5L308.1,320.5z"/>
		<path class="st9" d="M204,399.2c-4.1-1.2-6.3-4.8-9-7.6c-6-6.4-12.5-12.4-17.3-19.9c-4.4-6.8-6.8-14.2-6.8-22.5
			c0-7.1,0.2-14.3,0.9-21.4c-0.1-0.2-0.2-0.5-0.2-0.7c3.5-4.9,5.9-10.2,7.5-15.9c0.3-1,0.6-2,1-2.9c0.2-0.2,0.3-0.5,0.1-0.9
			c0.3-0.2,0.7-0.5,1-0.7c2.7-3.5,4.6-7.4,6.2-11.4c3.6-5,5.9-10.6,8.6-16.1c1.7-2.5,3.4-5,4-8c2.3-1.7,3.1-4.3,4.3-6.7l0.8-1.2
			c1.7-2.1,3.2-4.3,4.2-6.9c2.1-3.1,4.1-6.3,6.2-9.4c4.1,3.3,6.1,8.2,9,12.4c3.3,4.6,6.1,9.5,9.2,14.2c7.1,10.7,6.2,14.2-4,22.4
			c-9.9,8-20.9,14-31.3,21.1c-10.5,7.1-17.9,16.3-22.4,28.4c-3.3,8.9-1.6,15.8,4.4,22.7c8.1,9.4,15.5,19.4,23.1,29.2
			C203.8,397.9,203.8,398.6,204,399.2L204,399.2z"/>
		<path class="st1" d="M29,208.9c2.4,4,6.6,2.8,10,3.2c8.7,1.1,17-1.1,25.2-3.9c-0.1,2.3-0.3,4.6-0.4,7c-1.7,5.1-6.3,6.6-10.6,8.5
			c-3.1,0.8-5.5,2.6-8,4.5c-3.1,0.4-5.8,0.3-6.1-3.9c-0.1-0.8-0.8-1.3-1.7-1.4c-2.7,0-5.5,0.1-8.2,0.1c-2.4-8.3-3-8.8-8.4-6.5
			c-2.5-0.4-5-1.2-7.6-0.9l-4.8-0.8C14.8,211.6,20.9,206.9,29,208.9L29,208.9z"/>
		<path class="st9" d="M48.3,207.5c-1.4,2.6-3.2,2.1-5.1,0.7C44.7,206.7,46.5,207.3,48.3,207.5z"/>
		<path class="st9" d="M20.7,216.5c5.4-2.3,6-1.9,8.4,6.5l0.3,0.2h0c-2.5,1.1-3.3,1.4-5.8,2.5l-4.8-2.4
			C19,220.9,21.9,219.3,20.7,216.5L20.7,216.5z"/>
	</g>
</g>
</svg>
